<svg xmlns="http://www.w3.org/2000/svg" xmlns:xlink="http://www.w3.org/1999/xlink" width="250" zoomAndPan="magnify" viewBox="0 0 187.5 30.000001" height="40" preserveAspectRatio="xMidYMid meet" version="1.0"><defs><g/></defs><g fill="#00c2cb" fill-opacity="1"><g transform="translate(8.016875, 22.374643)"><g><path d="M 4.207031 -13 L 4.207031 -0.230469 C 4.207031 -0.128906 4.308594 0 4.488281 0 L 7.777344 0 C 7.953125 0 8.082031 -0.128906 8.082031 -0.230469 L 8.082031 -13 Z M 0.28125 -16.902344 L 11.980469 -16.902344 C 12.160156 -16.902344 12.261719 -17.003906 12.261719 -17.132812 L 12.261719 -20.164062 C 12.261719 -20.265625 12.160156 -20.394531 11.980469 -20.394531 L 0.28125 -20.394531 C 0.128906 -20.394531 0 -20.265625 0 -20.164062 L 0 -17.132812 C 0 -17.003906 0.128906 -16.902344 0.28125 -16.902344 Z M 0.28125 -16.902344 "/></g></g></g><g fill="#00c2cb" fill-opacity="1"><g transform="translate(20.89133, 22.374643)"><g><path d="M 13.917969 -0.332031 C 12.644531 -3.160156 11.269531 -5.964844 9.992188 -8.847656 C 12.03125 -9.585938 13.742188 -11.21875 13.742188 -14.328125 C 13.742188 -20.34375 8.003906 -20.394531 6.859375 -20.394531 L 0.253906 -20.394531 C 0.128906 -20.394531 0 -20.265625 0 -20.164062 L 0 -16.699219 L 6.859375 -16.699219 C 7.46875 -16.699219 9.867188 -16.570312 9.867188 -14.328125 C 9.867188 -12.085938 7.699219 -11.980469 6.859375 -11.980469 L 0 -11.980469 L 0 -0.230469 C 0 -0.128906 0.128906 0 0.253906 0 L 3.59375 0 C 3.746094 0 3.875 -0.128906 3.875 -0.230469 L 3.875 -8.234375 L 6.066406 -8.234375 L 9.789062 -0.152344 C 9.816406 -0.078125 9.96875 0 10.042969 0 L 13.691406 0 C 13.894531 0 13.996094 -0.152344 13.917969 -0.332031 Z M 13.917969 -0.332031 "/></g></g></g><g fill="#00c2cb" fill-opacity="1"><g transform="translate(35.550374, 22.374643)"><g><path d="M 16.011719 -0.304688 L 8.261719 -20.242188 C 8.183594 -20.445312 7.828125 -20.445312 7.75 -20.242188 L 0.0273438 -0.304688 C -0.0507812 -0.152344 0.0507812 0 0.28125 0 L 3.773438 0 C 3.875 0 4.003906 -0.0507812 4.027344 -0.152344 L 8.003906 -11.523438 L 12.03125 -0.152344 C 12.058594 -0.0507812 12.1875 0 12.261719 0 L 15.78125 0 C 15.960938 0 16.085938 -0.152344 16.011719 -0.304688 Z M 16.011719 -0.304688 "/></g></g></g><g fill="#00c2cb" fill-opacity="1"><g transform="translate(52.3764, 22.374643)"><g><path d="M 3.621094 -20.394531 L 0.28125 -20.394531 C 0.128906 -20.394531 0 -20.265625 0 -20.164062 L 0 -12.160156 L 3.902344 -12.160156 L 3.902344 -16.671875 C 8.335938 -16.902344 11.625 -15.042969 11.625 -10.199219 C 11.625 -3.902344 6.375 -3.644531 3.902344 -3.746094 L 3.902344 -8.234375 L 0 -8.234375 L 0 -0.230469 C 0 -0.128906 0.128906 0 0.28125 0 L 3.621094 0 C 8.695312 0 15.550781 -1.480469 15.550781 -10.199219 C 15.550781 -19.246094 8.589844 -20.394531 3.621094 -20.394531 Z M 3.621094 -20.394531 "/></g></g></g><g fill="#00c2cb" fill-opacity="1"><g transform="translate(68.718018, 22.374643)"><g><path d="M 9.6875 -3.796875 L 3.902344 -3.796875 L 3.902344 -8.386719 L 11.90625 -8.386719 C 12.058594 -8.386719 12.1875 -8.515625 12.1875 -8.617188 L 12.1875 -11.855469 C 12.1875 -11.980469 12.058594 -12.085938 11.90625 -12.085938 L 3.902344 -12.085938 L 3.902344 -16.699219 L 9.6875 -16.699219 L 9.6875 -20.394531 L 0.28125 -20.394531 C 0.128906 -20.394531 0 -20.265625 0 -20.164062 L 0 -0.230469 C 0 -0.128906 0.128906 0 0.28125 0 L 9.6875 0 Z M 9.6875 -3.796875 "/></g></g></g><g fill="#00c2cb" fill-opacity="1"><g transform="translate(81.516001, 22.374643)"><g/></g></g><g fill="#00c2cb" fill-opacity="1"><g transform="translate(87.88948, 22.374643)"><g><path d="M 9.941406 -14.328125 C 9.941406 -12.085938 6.933594 -12.085938 6.933594 -12.085938 L 3.875 -12.085938 L 3.875 -16.75 L 6.933594 -16.75 C 6.933594 -16.75 9.941406 -16.773438 9.941406 -14.328125 Z M 13.84375 -14.558594 C 13.84375 -20.546875 6.933594 -20.394531 6.933594 -20.394531 L 0.28125 -20.394531 C 0.128906 -20.394531 0 -20.265625 0 -20.164062 L 0 -8.285156 L 6.933594 -8.285156 C 6.933594 -8.285156 10.222656 -8.4375 10.222656 -6.042969 C 10.222656 -4.078125 8.210938 -3.722656 6.933594 -3.722656 L 3.902344 -3.722656 L 3.902344 0 L 6.933594 0 C 8.3125 0 14.125 -0.253906 14.125 -5.941406 C 14.125 -5.941406 14.25 -9.101562 11.011719 -10.199219 C 12.570312 -10.835938 13.84375 -12.1875 13.84375 -14.558594 Z M 13.84375 -14.558594 "/></g></g></g><g fill="#00c2cb" fill-opacity="1"><g transform="translate(102.72698, 22.374643)"><g><path d="M 8.3125 -3.492188 L 6.269531 -3.492188 L 6.269531 -20.394531 L 2.371094 -20.394531 L 2.371094 -3.492188 L 0.28125 -3.492188 C 0.128906 -3.492188 0 -3.390625 0 -3.261719 L 0 -0.230469 C 0 -0.128906 0.128906 0 0.28125 0 L 8.3125 0 C 8.488281 0 8.589844 -0.128906 8.589844 -0.230469 L 8.589844 -3.261719 C 8.589844 -3.390625 8.488281 -3.492188 8.3125 -3.492188 Z M 8.3125 -3.492188 "/></g></g></g><g fill="#00c2cb" fill-opacity="1"><g transform="translate(111.751848, 22.374643)"><g/></g></g><g fill="#00c2cb" fill-opacity="1"><g transform="translate(118.125328, 22.374643)"><g><path d="M 9.941406 -14.328125 C 9.941406 -12.085938 6.933594 -12.085938 6.933594 -12.085938 L 3.875 -12.085938 L 3.875 -16.75 L 6.933594 -16.75 C 6.933594 -16.75 9.941406 -16.773438 9.941406 -14.328125 Z M 13.84375 -14.558594 C 13.84375 -20.546875 6.933594 -20.394531 6.933594 -20.394531 L 0.28125 -20.394531 C 0.128906 -20.394531 0 -20.265625 0 -20.164062 L 0 -8.285156 L 6.933594 -8.285156 C 6.933594 -8.285156 10.222656 -8.4375 10.222656 -6.042969 C 10.222656 -4.078125 8.210938 -3.722656 6.933594 -3.722656 L 3.902344 -3.722656 L 3.902344 0 L 6.933594 0 C 8.3125 0 14.125 -0.253906 14.125 -5.941406 C 14.125 -5.941406 14.25 -9.101562 11.011719 -10.199219 C 12.570312 -10.835938 13.84375 -12.1875 13.84375 -14.558594 Z M 13.84375 -14.558594 "/></g></g></g><g fill="#00c2cb" fill-opacity="1"><g transform="translate(132.962828, 22.374643)"><g><path d="M 16.011719 -0.304688 L 8.261719 -20.242188 C 8.183594 -20.445312 7.828125 -20.445312 7.75 -20.242188 L 0.0273438 -0.304688 C -0.0507812 -0.152344 0.0507812 0 0.28125 0 L 3.773438 0 C 3.875 0 4.003906 -0.0507812 4.027344 -0.152344 L 8.003906 -11.523438 L 12.03125 -0.152344 C 12.058594 -0.0507812 12.1875 0 12.261719 0 L 15.78125 0 C 15.960938 0 16.085938 -0.152344 16.011719 -0.304688 Z M 16.011719 -0.304688 "/></g></g></g><g fill="#00c2cb" fill-opacity="1"><g transform="translate(149.788853, 22.374643)"><g><path d="M 4.207031 -13 L 4.207031 -0.230469 C 4.207031 -0.128906 4.308594 0 4.488281 0 L 7.777344 0 C 7.953125 0 8.082031 -0.128906 8.082031 -0.230469 L 8.082031 -13 Z M 0.28125 -16.902344 L 11.980469 -16.902344 C 12.160156 -16.902344 12.261719 -17.003906 12.261719 -17.132812 L 12.261719 -20.164062 C 12.261719 -20.265625 12.160156 -20.394531 11.980469 -20.394531 L 0.28125 -20.394531 C 0.128906 -20.394531 0 -20.265625 0 -20.164062 L 0 -17.132812 C 0 -17.003906 0.128906 -16.902344 0.28125 -16.902344 Z M 0.28125 -16.902344 "/></g></g></g><g fill="#00c2cb" fill-opacity="1"><g transform="translate(162.663308, 22.374643)"><g><path d="M 16.011719 -0.304688 L 8.261719 -20.242188 C 8.183594 -20.445312 7.828125 -20.445312 7.75 -20.242188 L 0.0273438 -0.304688 C -0.0507812 -0.152344 0.0507812 0 0.28125 0 L 3.773438 0 C 3.875 0 4.003906 -0.0507812 4.027344 -0.152344 L 8.003906 -11.523438 L 12.03125 -0.152344 C 12.058594 -0.0507812 12.1875 0 12.261719 0 L 15.78125 0 C 15.960938 0 16.085938 -0.152344 16.011719 -0.304688 Z M 16.011719 -0.304688 "/></g></g></g></svg>